<svg xmlns="http://www.w3.org/2000/svg" width="960" height="600" viewBox="0 0 960 600" role="img" aria-label="HexaBill analytics preview">
  <defs>
    <linearGradient id="a" x1="0" y1="0" x2="1" y2="1">
      <stop offset="0%" style="stop-color:#fff7ed"/>
      <stop offset="100%" style="stop-color:#ffedd5"/>
    </linearGradient>
  </defs>
  <rect width="960" height="600" fill="url(#a)"/>
  <rect x="48" y="48" width="864" height="72" rx="12" fill="#fdba74" opacity=".5"/>
  <text x="72" y="96" fill="#c2410c" font-family="system-ui,sans-serif" font-size="22" font-weight="700">Analytics &amp; reports</text>
  <rect x="48" y="152" width="270" height="120" rx="12" fill="#ffffff" stroke="#fb923c" stroke-width="2"/>
  <rect x="342" y="152" width="270" height="120" rx="12" fill="#ffffff" stroke="#fb923c" stroke-width="2"/>
  <rect x="636" y="152" width="276" height="120" rx="12" fill="#ffffff" stroke="#fb923c" stroke-width="2"/>
  <rect x="48" y="296" width="864" height="256" rx="12" fill="#ffffff" stroke="#fdba74" stroke-width="2"/>
  <rect x="88" y="420" width="48" height="100" rx="4" fill="#fb923c" opacity=".85"/>
  <rect x="168" y="380" width="48" height="140" rx="4" fill="#f97316" opacity=".75"/>
  <rect x="248" y="400" width="48" height="120" rx="4" fill="#ea580c" opacity=".7"/>
  <rect x="328" y="360" width="48" height="160" rx="4" fill="#fb923c" opacity=".65"/>
  <rect x="408" y="390" width="48" height="130" rx="4" fill="#fdba74" opacity=".9"/>
  <path d="M520 480 L680 340 L820 400" fill="none" stroke="#ea580c" stroke-width="4" stroke-linecap="round"/>
  <circle cx="680" cy="340" r="8" fill="#ea580c"/>
  <circle cx="820" cy="400" r="8" fill="#f97316"/>
  <circle cx="520" cy="480" r="8" fill="#fb923c"/>
</svg>
