<svg xmlns="http://www.w3.org/2000/svg" width="960" height="600" viewBox="0 0 960 600" role="img" aria-label="HexaBill ERP preview">
  <defs>
    <linearGradient id="e" x1="0%" y1="100%" x2="100%" y2="0%">
      <stop offset="0%" style="stop-color:#fffbeb"/>
      <stop offset="100%" style="stop-color:#fef3c7"/>
    </linearGradient>
  </defs>
  <rect width="960" height="600" fill="url(#e)"/>
  <rect x="48" y="48" width="864" height="72" rx="12" fill="#fde68a" opacity=".85"/>
  <text x="72" y="96" fill="#92400e" font-family="system-ui,sans-serif" font-size="22" font-weight="700">ERP &amp; inventory</text>
  <rect x="48" y="152" width="420" height="400" rx="12" fill="#ffffff" stroke="#fbbf24" stroke-width="2"/>
  <rect x="492" y="152" width="420" height="400" rx="12" fill="#ffffff" stroke="#fbbf24" stroke-width="2"/>
  <rect x="80" y="200" width="160" height="24" rx="4" fill="#fef3c7"/>
  <rect x="80" y="240" width="356" height="14" rx="3" fill="#fde68a"/>
  <rect x="80" y="268" width="300" height="14" rx="3" fill="#fde68a"/>
  <rect x="80" y="304" width="356" height="100" rx="8" fill="#fcd34d" opacity=".35"/>
  <rect x="524" y="200" width="356" height="48" rx="8" fill="#f59e0b" opacity=".2"/>
  <rect x="524" y="268" width="356" height="48" rx="8" fill="#fbbf24" opacity=".25"/>
  <rect x="524" y="336" width="356" height="48" rx="8" fill="#fcd34d" opacity=".3"/>
  <rect x="524" y="404" width="356" height="120" rx="8" fill="#fffbeb" stroke="#f59e0b" stroke-width="1" opacity=".9"/>
</svg>
